<?xml version="1.0" standalone="no"?><!DOCTYPE svg PUBLIC "-//W3C//DTD SVG 1.1//EN" "http://www.w3.org/Graphics/SVG/1.1/DTD/svg11.dtd"><svg t="1649344731805" class="icon" viewBox="0 0 1288 1024" version="1.1" xmlns="http://www.w3.org/2000/svg" p-id="16972" xmlns:xlink="http://www.w3.org/1999/xlink" width="251.5625" height="200"><defs><style type="text/css">@font-face { font-family: "feedback-iconfont"; src: url("//at.alicdn.com/t/font_1031158_u69w8yhxdu.woff2?t=1630033759944") format("woff2"), url("//at.alicdn.com/t/font_1031158_u69w8yhxdu.woff?t=1630033759944") format("woff"), url("//at.alicdn.com/t/font_1031158_u69w8yhxdu.ttf?t=1630033759944") format("truetype"); }
</style></defs><path d="M1002.858056 446.623571c0-50.589652-29.070173-93.251075-69.592233-109.862603 1.761829-11.703576 3.020278-23.658842 3.020278-35.865798 0-102.941133-62.796608-192.416861-155.16677-237.846872v133.64729c0 17.240752-13.968785 31.209537-31.209536 31.209537-17.240752 0-31.209537-13.968785-31.209537-31.209537V9.438368c-24.288067-6.040555-49.708738-9.438368-76.010323-9.438368-26.049896 0-51.218877 3.397812-75.255254 9.312523v187.383065c0 17.240752-13.968785 31.209537-31.209537 31.209537-17.240752 0-31.209537-13.968785-31.209536-31.209537V62.670763c-92.747696 45.304166-156.047683 135.031584-156.047684 238.224407 0 12.332801 1.258449 24.288067 3.020278 36.117488-40.01868 16.737372-68.837164 59.272951-68.837164 109.485068 0 70.598992 56.252673 126.599975 120.81111 116.406538C458.201303 661.314981 549.816394 723.608209 643.193314 723.608209S828.059481 661.314981 882.046946 563.030109c64.180902 10.067592 120.81111-45.430011 120.81111-116.406538M462.480029 319.771906c56.126828-11.703576 116.532383-18.750891 180.335751-18.750891 64.180902 0 124.838147 7.17316 181.342509 19.002581 4.530417 10.067592 9.186678 19.631805 14.09463 28.440949-47.317685-11.955266-117.035763-21.771169-195.059605-21.771169-78.149687 0-147.867765 9.815903-195.185449 21.771169 5.159641-9.438368 10.067592-19.002581 14.472164-28.692639m180.713285 345.695957c-70.347302 0-147.23854-41.151284-210.035148-176.434558-12.83618 6.292245-31.083692 17.114907-43.794027 17.114907-62.167384 0-63.425833-116.784073-1.384294-119.049281l7.299005 0.377535c20.135185 9.312523 69.466388 16.863217 133.89898 21.016099-0.125845 1.132604-0.25169 2.265208-0.25169 3.523657 0 25.672361 13.213715 46.43677 29.573553 46.436771s29.573553-20.764409 29.573553-46.436771v-0.755069c17.869977 0.50338 36.243333 0.755069 55.120068 0.755069 18.876736 0 37.375937-0.25169 55.120069-0.755069v0.755069c0 25.672361 13.213715 46.43677 29.573553 46.436771s29.573553-20.764409 29.573553-46.436771c0-1.132604-0.125845-2.265208-0.25169-3.523657 64.306747-4.152882 113.38626-11.703576 133.773135-20.890255 3.523657-0.125845 6.543935-0.377535 7.550695-0.503379 62.167384 2.391053 60.78309 119.049281-1.384294 119.049281-12.83618 0-30.957847-10.822662-43.794028-17.114907-62.922453 135.283274-139.813691 176.434558-210.160993 176.434558M870.34337 703.473024v320.526976h210.916062c0-0.377535 0.125845-0.880914 0.125845-1.258449-0.125845-123.831387-110.365983-242.754824-211.041907-319.268527M643.193314 909.732825c-60.405555 0-119.552661-122.572938-171.149072-193.17193v221.612879h342.298145V716.43505c-51.470567 70.598992-110.743517 193.297776-171.149073 193.297775M205.127197 1022.741551c0 0.377535 0.125845 0.880914 0.125845 1.258449h210.916062V703.473024C315.367334 779.986727 205.127197 898.784319 205.127197 1022.741551m438.066117-448.762935c29.573553 0 53.735775-23.029618 57.259433-45.555856h-114.518865c3.523657 22.526238 27.685879 45.555856 57.259432 45.555856" p-id="16973"></path></svg>