<?xml version="1.0" standalone="no"?><!DOCTYPE svg PUBLIC "-//W3C//DTD SVG 1.1//EN" "http://www.w3.org/Graphics/SVG/1.1/DTD/svg11.dtd"><svg t="1649344593286" class="icon" viewBox="0 0 1024 1024" version="1.1" xmlns="http://www.w3.org/2000/svg" p-id="13081" xmlns:xlink="http://www.w3.org/1999/xlink" width="200" height="200"><defs><style type="text/css">@font-face { font-family: "feedback-iconfont"; src: url("//at.alicdn.com/t/font_1031158_u69w8yhxdu.woff2?t=1630033759944") format("woff2"), url("//at.alicdn.com/t/font_1031158_u69w8yhxdu.woff?t=1630033759944") format("woff"), url("//at.alicdn.com/t/font_1031158_u69w8yhxdu.ttf?t=1630033759944") format("truetype"); }
</style></defs><path d="M987.140824 614.877789c-11.147209-22.196186-22.207442-44.472186-34.37994-66.107635-14.136102-25.121638-14.67842-49.398077-0.469669-74.68855 12.160219-21.644658 23.206127-43.924751 34.460777-66.067728 21.401127-42.104402 11.163581-73.30001-31.229375-94.982528-22.733389-11.62711-45.502591-23.218406-68.587976-34.119013-24.732806-11.678272-37.706503-30.811892-41.083205-57.781507-3.348051-26.743478-7.423628-53.431701-12.286078-79.94188-7.434883-40.53577-34.316499-59.516927-74.872734-53.469561-26.661619 3.976322-53.37133 7.874878-79.796579 13.134347-26.105998 5.193981-47.481543-1.686304-65.740291-20.619369C595.40965 61.834408 577.427178 43.653427 559.269732 25.657653c-34.366638-34.063758-63.402181-34.208036-97.448544-0.442041-18.655766 18.501256-36.94828 37.368833-55.366654 56.108505-17.823869 18.135958-38.825931 24.553738-64.073428 19.618637-27.14152-5.305515-54.508153-9.574484-81.890134-13.506807-39.117555-5.617604-66.130146 13.992848-73.182337 53.201471-4.771382 26.530644-9.216349 53.167704-12.4191 79.922438-3.343958 27.938626-16.883509 47.223686-42.46356 59.082049-23.800631 11.034652-47.268709 22.852085-70.448232 35.147373-38.662212 20.508859-48.675668 51.707537-29.32205 90.802581 12.277892 24.80034 25.128801 49.323381 38.066685 73.78912 11.165627 21.113595 11.254649 41.911009 0.141208 63.048139-12.549052 23.868165-24.911873 47.838655-37.086418 71.89919-21.122805 41.750359-11.538088 72.158071 29.787626 93.641057 23.914211 12.432402 48.056606 24.442205 72.336115 36.147081 23.185662 11.176883 35.216953 29.588094 38.704165 54.734289 3.995764 28.813499 8.176735 57.629044 13.395274 86.238917 6.381966 34.99184 35.005142 55.081169 69.653172 49.744957 28.046066-4.319109 56.153527-8.411057 83.998015-13.818896 26.030278-5.055843 47.487683 1.47347 65.769965 20.548765 17.686755 18.454187 35.786899 36.521588 53.937183 54.523501 34.567194 34.283756 63.012325 34.483288 97.277662 0.617016 18.687486-18.468512 37.139627-37.17851 55.476141-55.995948 17.832055-18.3007 38.821838-24.426856 64.033521-19.675939 30.642034 5.77416 61.548064 10.155686 86.444589 14.185217 40.951207-0.292647 62.212149-17.475967 68.305561-51.622608 4.98524-27.934533 9.394394-55.995948 13.139463-84.122851 3.474933-26.087579 16.020915-44.72902 40.053823-56.08804 23.723888-11.211673 47.151036-23.075152 70.460511-35.131001C998.201057 686.711491 1008.05898 656.529917 987.140824 614.877789zM753.342086 426.365737c-84.24257 84.266105-168.51993 168.495372-252.866871 252.65506-12.895931 12.86728-25.616888 12.692306-38.747141-0.508552-48.519112-48.773899-97.293011-97.294034-146.009608-145.870447-5.702533-5.686161-10.060525-11.905432-9.977642-24.468809 4.07967-16.515141 19.520406-28.243552 35.684575-37.896826 13.673596-8.166502 23.81598 2.332994 33.070189 11.600505 31.571138 31.620254 63.606829 62.793351 94.569138 94.999923 9.77811 10.170012 15.340459 9.776063 25.088894-0.101301 65.259367-66.132193 131.186911-131.603371 196.774738-197.409149 9.672716-9.70546 19.542917-21.699914 34.38608-14.891255 16.845649 7.727531 30.76073 20.584579 36.708841 39.075602C764.851522 412.344239 759.568519 420.137257 753.342086 426.365737z" p-id="13082"></path></svg>