<?xml version="1.0" standalone="no"?><!DOCTYPE svg PUBLIC "-//W3C//DTD SVG 1.1//EN" "http://www.w3.org/Graphics/SVG/1.1/DTD/svg11.dtd"><svg t="1648958092249" class="icon" viewBox="0 0 1024 1024" version="1.1" xmlns="http://www.w3.org/2000/svg" p-id="53439" data-spm-anchor-id="a313x.7781069.0.i56" xmlns:xlink="http://www.w3.org/1999/xlink" width="200" height="200"><defs><style type="text/css">@font-face { font-family: "feedback-iconfont"; src: url("//at.alicdn.com/t/font_1031158_u69w8yhxdu.woff2?t=1630033759944") format("woff2"), url("//at.alicdn.com/t/font_1031158_u69w8yhxdu.woff?t=1630033759944") format("woff"), url("//at.alicdn.com/t/font_1031158_u69w8yhxdu.ttf?t=1630033759944") format("truetype"); }
</style></defs><path d="M512.52096 0a213.333156 213.333156 0 0 1 159.231867 355.242371l149.845209 242.346464 3.583997 0.170667a213.333156 213.333156 0 1 1-222.719815 257.194452H422.579702a213.418489 213.418489 0 0 1-194.730505 168.618526L213.854542 1023.999147a213.333156 213.333156 0 0 1-13.994655-426.239645l2.133332-0.085333 150.442541-243.370464A213.333156 213.333156 0 0 1 512.52096 0zM213.854542 682.666098a127.999893 127.999893 0 1 0 0 255.999786 127.999893 127.999893 0 0 0 0-255.999786z m597.332836 0a127.999893 127.999893 0 1 0 0 255.999786 127.999893 127.999893 0 0 0 0-255.999786zM420.787703 406.015662L293.214476 612.522156c66.218611 26.623978 116.053237 85.418595 130.047892 157.013203h178.517184a213.674489 213.674489 0 0 1 129.023893-156.586536l-127.573227-206.506495A212.479823 212.479823 0 0 1 512.52096 426.666311a212.479823 212.479823 0 0 1-91.733257-20.650649zM512.52096 85.333262a127.999893 127.999893 0 1 0 0 255.999787 127.999893 127.999893 0 0 0 0-255.999787z" p-id="53440" fill="#ea986c"></path></svg>