<?xml version="1.0" standalone="no"?><!DOCTYPE svg PUBLIC "-//W3C//DTD SVG 1.1//EN" "http://www.w3.org/Graphics/SVG/1.1/DTD/svg11.dtd"><svg t="1649344529410" class="icon" viewBox="0 0 1024 1024" version="1.1" xmlns="http://www.w3.org/2000/svg" p-id="11387" xmlns:xlink="http://www.w3.org/1999/xlink" width="200" height="200"><defs><style type="text/css">@font-face { font-family: "feedback-iconfont"; src: url("//at.alicdn.com/t/font_1031158_u69w8yhxdu.woff2?t=1630033759944") format("woff2"), url("//at.alicdn.com/t/font_1031158_u69w8yhxdu.woff?t=1630033759944") format("woff"), url("//at.alicdn.com/t/font_1031158_u69w8yhxdu.ttf?t=1630033759944") format("truetype"); }
</style></defs><path d="M735.5 959h-447C165.3 959 65 858.7 65 735.5v-447C65 165.3 165.3 65 288.5 65h447C858.7 65 959 165.3 959 288.5v447C959 858.7 858.7 959 735.5 959z m-447-812.7c-78.4 0-142.2 63.8-142.2 142.2v447c0 78.4 63.8 142.2 142.2 142.2h447c78.4 0 142.2-63.8 142.2-142.2v-447c0-78.4-63.8-142.2-142.2-142.2h-447z" p-id="11388"></path><path d="M291.8 657.1s-4.4 28.8 14.2 47.5c14.9 14.9 42.4 11.9 42.4 11.9l131-137.8-54-51.6-133.6 130z" p-id="11389"></path><path d="M560.9 549.8l-152.7-147-3-41.7-57.4-37-16.3 16.3-16.3 16.3-16.3 16.3 36.7 57.3 39 3.4 154.1 147.6-32.2 32.9c46.2 46.1 92.3 92.3 138.5 138.5 47.5-12.6 75-45.8 90.3-90.6L586.7 523.7l-25.8 26.1z" p-id="11390"></path><path d="M552.1 497.9l23.1-24.1c46.1 20 93.7 11.9 125.9-15.9 31.5-27.4 31.6-81.1 31.6-81.1l-25.1-9.9-48.6 49.2-70.9-70.3 48.9-49.5-9.8-25.1s-48.9 0-81.4 32.2c-30.6 29.9-40.1 79.4-18.7 124.2L503 451.4l49.1 46.5z" p-id="11391"></path></svg>