<?xml version="1.0" standalone="no"?><!DOCTYPE svg PUBLIC "-//W3C//DTD SVG 1.1//EN" "http://www.w3.org/Graphics/SVG/1.1/DTD/svg11.dtd"><svg t="1648958347191" class="icon" viewBox="0 0 1024 1024" version="1.1" xmlns="http://www.w3.org/2000/svg" p-id="55286" xmlns:xlink="http://www.w3.org/1999/xlink" width="200" height="200"><defs><style type="text/css">@font-face { font-family: "feedback-iconfont"; src: url("//at.alicdn.com/t/font_1031158_u69w8yhxdu.woff2?t=1630033759944") format("woff2"), url("//at.alicdn.com/t/font_1031158_u69w8yhxdu.woff?t=1630033759944") format("woff"), url("//at.alicdn.com/t/font_1031158_u69w8yhxdu.ttf?t=1630033759944") format("truetype"); }
</style></defs><path d="M512 128.662588L415.804235 224.858353 511.939765 321.054118l96.195764-96.256L512 128.662588z m0-85.172706l181.308235 181.308236L512 406.226824l-181.308235-181.308236L512 43.429647z m287.201882 372.374589L702.945882 512l96.195765 96.135529L895.337412 512l-96.13553-96.135529z m0-85.232942l181.308236 181.368471-181.368471 181.428706-181.368471-181.308235 181.428706-181.488942z m-526.998588 37.827765l96.195765 96.13553 96.195765-96.195765-96.13553-96.195765-96.256 96.256z m96.256-181.428706l181.308235 181.308236-181.36847 181.428705-181.308235-181.308235 181.308235-181.428706z m47.766588 325.391059l96.13553 96.135529 96.195764-96.195764L512.421647 416.225882 416.225882 512.421647z m96.195765-181.428706l181.308235 181.308235-181.36847 181.488942-181.308236-181.368471 181.368471-181.428706z m46.983529 324.668235l96.13553 96.13553 96.256-96.256-96.195765-96.13553-96.195765 96.195765z m96.195765-181.428705l181.308235 181.308235-181.308235 181.428706-181.36847-181.308236 181.36847-181.428705z m-430.682353-58.428236L128.602353 512l96.135529 96.135529L321.054118 512 224.858353 415.804235z m0-85.232941l181.308236 181.308235-181.428706 181.488942L43.489882 512l181.368471-181.428706z m47.706353 325.391059l96.195765 96.195765 96.195765-96.256-96.13553-96.13553-96.256 96.195765zM368.880941 474.654118l181.308235 181.308235-181.36847 181.428706-181.308235-181.308235 181.308235-181.428706zM512 702.945882l-96.195765 96.256L512 895.337412l96.195765-96.195765-96.13553-96.195765z m0-85.172706l181.308235 181.308236L512 980.570353l-181.308235-181.308235L512 617.773176z" p-id="55287" fill="#ea986c"></path></svg>