<?xml version="1.0" standalone="no"?><!DOCTYPE svg PUBLIC "-//W3C//DTD SVG 1.1//EN" "http://www.w3.org/Graphics/SVG/1.1/DTD/svg11.dtd"><svg t="1650290505142" class="icon" viewBox="0 0 1024 1024" version="1.1" xmlns="http://www.w3.org/2000/svg" p-id="3730" xmlns:xlink="http://www.w3.org/1999/xlink" width="200" height="200"><defs><style type="text/css">@font-face { font-family: "feedback-iconfont"; src: url("//at.alicdn.com/t/font_1031158_u69w8yhxdu.woff2?t=1630033759944") format("woff2"), url("//at.alicdn.com/t/font_1031158_u69w8yhxdu.woff?t=1630033759944") format("woff"), url("//at.alicdn.com/t/font_1031158_u69w8yhxdu.ttf?t=1630033759944") format("truetype"); }
</style></defs><path d="M77.27761 0h869.418717a77.27761 77.27761 0 0 1 77.27761 77.27761v869.44478a77.27761 77.27761 0 0 1-77.27761 77.27761H77.27761A77.27761 77.27761 0 0 1 0 946.72239V77.27761a77.27761 77.27761 0 0 1 22.675049-54.641656A77.27761 77.27761 0 0 1 77.27761 0z" fill="#FFC9A1" p-id="3731"></path><path d="M110.925297 719.137876h793.001196q77.368831 0 77.3558 77.811906v116.711345q0 77.824938-77.3558 77.811906H110.925297q-77.368831 0-77.368831-77.811906v-116.711345q0-77.824938 77.368831-77.811906z m0 0" fill="#FF8F33" p-id="3732"></path><path d="M152.861106 884.170531h153.60391v24.264909H152.861106v-24.264909z m11.493904-98.675558h130.316374v24.004276h-130.316374V785.5471zM352.675202 817.161852q5.903332-0.15638 13.409555-0.482171 5.212655-9.122146 11.337524-19.964468l17.723027 9.734633q-20.277228 34.012573-33.686783 50.823386 13.565934-1.303164 24.5907-3.036372a162.36117 162.36117 0 0 0-1.602891 19.312887q-30.494031 3.036372-46.627199 6.867673l-5.212655-18.035786q9.265494-7.975362 21.710708-26.988521-11.663315 0.964341-18.843748 1.91565l-5.903331-18.244292q12.288834-15.481585 26.988521-51.409809l19.951436 7.988393q-14.426023 26.519382-23.834864 41.518797z m-22.675049 76.951818q26.66273-3.518542 51.09705-7.988393-0.63855 6.711293-0.95131 12.927384 15.637965-29.699102 18.035786-76.795439 0.312759-7.818982 0.482171-25.71142h-11.337525v-19.612615h85.578763v18.361577l-12.367024 25.22925h22.153784v19.000128a123.422637 123.422637 0 0 1-20.85062 47.734887 92.824353 92.824353 0 0 0 27.1449 17.240856q-9.122146 12.132454-14.048105 20.277228a120.594772 120.594772 0 0 1-27.1449-21.710708 153.004454 153.004454 0 0 1-33.204612 23.456948 199.788032 199.788032 0 0 0-13.253175-19.482298 119.578304 119.578304 0 0 0 32.579093-21.554328 174.623941 174.623941 0 0 1-18.517957-37.361705q-4.952022 50.614879-28.57838 78.07254a140.246481 140.246481 0 0 0-13.735346-17.566647l-39.277355 7.349843z m89.410064-86.217312q12.288834 40.554455 27.627071 62.551859a90.322279 90.322279 0 0 0 13.409555-30.585253H437.081117v-19.33895l11.181145-23.952149h-28.695666q0 5.577541-0.156379 11.337524zM516.065871 782.992899h44.072997v120.725088H542.898012v-10.216803h-8.301153v14.334801h-18.530988v-124.843086z m26.832141 20.381481h-8.301153v69.615006h8.301153v-69.615006z m23.95215-16.120136h26.610603q3.192751-10.698974 5.590573-20.277228l22.675049 3.036372-7.584413 17.240856h48.386469v113.205834q0 9.343684-3.596732 14.973351a16.120135 16.120135 0 0 1-10.099519 7.219527q-6.515819 1.58986-31.810227 1.602892-1.602891-9.122146-4.469851-21.397949 10.42531 0.63855 19.156507 0.63855 11.181145 0 11.181145-11.337524V806.788669H585.641783v116.867723h-18.804653V787.306371z m26.180559 31.771132h42.470106v69.289216h-26.193591v10.216804h-16.289547v-79.492988z m26.18056 49.520222v-29.673038h-9.904045v29.660006h9.904045zM724.011708 840.475451q0 60.597114-16.445926 85.735142-7.349843-6.867673-18.035786-15.325205 13.578966-22.675049 13.409555-73.289929v-50.132709h61.248695q-2.958182-7.349843-5.825142-14.048105l25.711421-6.072743q3.596732 8.626944 8.066583 20.120848h54.133422v19.638678h-122.262822v33.374023z m-2.840897 55.566902h75.974446q9.734633-31.27593 22.987808-80.14457l22.231974 5.720889q-8.301153 31.27593-22.59686 74.397618h27.223091v22.153783H721.170811v-22.153783z m3.831302-68.181527l19.156506-8.144773q14.048105 30.650411 26.063275 63.229504l-21.397948 7.988394q-10.281962-29.868513-23.847897-63.073125z m39.277355-8.301153l19.951436-5.903332q8.457533 22.036499 18.361577 56.844003l-21.580391 5.851205q-9.421874-33.960447-16.758686-56.791876z" fill="#FFFFFF" p-id="3733"></path><path d="M796.754308 32.683346h116.711344q77.824938 0 77.811907 78.189825V619.002774q0 78.189824-77.811907 78.189824H796.754308q-77.824938 0-77.811907-78.189824V110.847107q0-78.189824 77.811907-78.189824z m-685.920232 0H619.002774q78.189824 0 78.189824 78.189825V619.002774q0 78.189824-78.189824 78.189824H110.847107q-78.189824 0-78.189824-78.189824V110.847107q0-78.189824 78.189824-78.189824z m0 0" fill="#FF8F33" p-id="3734"></path><path d="M823.234595 194.497188h24.51251v121.402733h-24.51251zM874.383772 194.497188h24.512509v121.402733h-24.512509zM794.786531 485.519713c4.248314-2.94515 11.102955-5.564509 52.947542-17.644837a86.855863 86.855863 0 0 1-0.820993-16.341673l-23.691517 6.216091a332.306753 332.306753 0 0 0 28.109242-41.70124l-15.481585-9.786759c-2.94515 5.720889-6.216091 11.728474-9.643412 17.319046l-14.334801 1.146784a230.360254 230.360254 0 0 0 24.66889-43.799334l-17.644837-8.327216c-6.203059 19.117412-17.475426 39.381608-21.241569 44.607295s-6.203059 8.653007-9.799791 9.643412a124.074219 124.074219 0 0 1 6.046679 17.488457c2.606327-1.146784 6.698262-2.293568 21.736771-4.091934a158.060729 158.060729 0 0 1-13.396523 17.644837c-5.212655 6.203059-8.978798 9.799791-13.240143 10.777164a163.038815 163.038815 0 0 1 5.877268 16.836875z" fill="#FFFFFF" p-id="3735"></path><path d="M852.620937 526.699687c11.923948-15.194889 19.768994-34.976915 24.51251-58.642368a179.289267 179.289267 0 0 0 14.217516 22.883555 99.678994 99.678994 0 0 1-27.444628 20.746367 63.75077 63.75077 0 0 1 13.565935 14.543307 99.040444 99.040444 0 0 0 26.310875-20.85062 111.655069 111.655069 0 0 0 27.45766 20.264196 79.753621 79.753621 0 0 1 12.744942-15.637965 100.20026 100.20026 0 0 1-28.591413-19.547456c10.620784-16.172262 14.947288-23.900023 19.677773-48.217058l0.273664-16.615337h-21.124284c3.766143-13.031637 7.675634-28.435033 10.946575-41.831556h-75.166484v18.140039h16.015882c-1.628955 35.784876-5.720889 67.152027-16.172262 90.843544l-3.270941-13.565935c-20.420576 7.818982-41.70124 16.172262-55.384458 20.420576l4.574104 19.286823c15.03851-6.203059 34.155922-14.217516 52.12655-22.062562a91.508157 91.508157 0 0 1-12.249739 18.244293 124.621548 124.621548 0 0 1 16.941128 11.728473z m50.158772-50.823386a144.651175 144.651175 0 0 1-20.589987-39.537987c1.146784-10.946575 2.124157-22.557764 2.775739-34.638093h16.498053q-5.01718 20.342386-11.272366 40.398076h26.975489a121.989157 121.989157 0 0 1-14.334801 33.882257zM359.777444 609.776375A228.496729 228.496729 0 1 1 587.987477 381.840006a228.509761 228.509761 0 0 1-228.210033 227.936369z m0-426.60368a198.380615 198.380615 0 1 0 198.080888 198.680343 198.380615 198.380615 0 0 0-198.080888-198.680343z m0 0" fill="#FFFFFF" p-id="3736"></path><path d="M461.580595 361.106671h-105.621421c-5.564509 0-8.209932-3.81827-5.864236-8.1969l6.150932-11.976075 48.412533-96.746875a15.481585 15.481585 0 0 0-12.914353-24.551605h-58.642368a16.732622 16.732622 0 0 0-13.787472 9.122146s-70.722696 158.647153-74.840693 166.257629a16.367737 16.367737 0 0 0 13.787472 24.251878h101.803151a8.222963 8.222963 0 0 1 8.509659 9.643411c-0.430044 2.462979-17.605742 112.827916-19.065285 119.53921a5.290845 5.290845 0 0 0 9.682506 3.205782c3.518542-5.212655 79.206292-118.653058 113.818321-168.355723a14.334801 14.334801 0 0 0 2.07203-15.637964c-2.489043-5.134465-6.020616-6.84161-11.728473-6.620072h-1.772303z m0 0" fill="#FFFFFF" p-id="3737"></path></svg>