<?xml version="1.0" standalone="no"?><!DOCTYPE svg PUBLIC "-//W3C//DTD SVG 1.1//EN" "http://www.w3.org/Graphics/SVG/1.1/DTD/svg11.dtd"><svg t="1648953279459" class="icon" viewBox="0 0 1024 1024" version="1.1" xmlns="http://www.w3.org/2000/svg" p-id="3043" xmlns:xlink="http://www.w3.org/1999/xlink" width="200" height="200"><defs><style type="text/css">@font-face { font-family: "feedback-iconfont"; src: url("//at.alicdn.com/t/font_1031158_u69w8yhxdu.woff2?t=1630033759944") format("woff2"), url("//at.alicdn.com/t/font_1031158_u69w8yhxdu.woff?t=1630033759944") format("woff"), url("//at.alicdn.com/t/font_1031158_u69w8yhxdu.ttf?t=1630033759944") format("truetype"); }
</style></defs><path d="M731.959 509.34c0-246.9-93.4-448.7-217.8-448.7s-217.7 202.3-217.7 448.7 93.3 448.7 217.8 448.7 217.7-201.9 217.7-448.7z m-397 0c0-228.1 358.6-228.1 358.6 0s-358.6 228.1-358.6 0z" fill="#FA8381" opacity=".89" p-id="3044"></path><path d="M125.559 733.64c62 107.5 284 87.3 497.5-36.2s342.1-305.1 280.2-413c-44.6-77-171.8-89.6-324.3-41.3-9.9 3.3-15.2 14-11.9 23.9 0.1 0.2 0.1 0.4 0.2 0.5 3.3 9.9-130.5 69.5-135.6 60.1-5.3-9-16.7-12.1-25.8-7-214.1 123.5-342.2 305.5-280.3 413z" fill="#FA8381" opacity=".89" p-id="3045"></path><path d="M125.559 284.94c-62 107.5 66.2 289.6 280.2 413 9.4 5.2 218.7-342.1 223.9-351.1 5.1-9.1 1.9-20.6-7-25.8-213.1-123.4-435.1-143.6-497.1-36.1z m777.3 448.7c41.8-71.8-1.4-178.4-104.2-280.2-7.5-7.5-229.5 319.2-219.2 322.4 152.6 47.5 279.3 34.8 323.4-42.2z" fill="#FA8381" opacity=".89" p-id="3046"></path><path d="M698.604 509.317c0-209-79.1-379.8-184.4-379.8s-184.3 171.2-184.3 379.8 79.1 379.8 184.4 379.8 184.3-170.8 184.3-379.8z m-336.1 0c0-193.1 71.5-347.6 151.8-347.6s151.7 154.6 151.7 347.6-71.5 347.6-151.8 347.6-151.7-154.5-151.7-347.6z" fill="#F85657" opacity=".89" p-id="3047"></path><path d="M185.204 699.217c52.5 91 240.4 73.9 421.2-30.6s289.7-258.2 237.2-349.6c-37.7-65.2-145.4-75.9-274.5-35-8.5 3-12.9 12.3-9.9 20.8 2.9 8.1 11.5 12.5 19.8 10.2 116.4-36.9 209-27.8 236.8 20.3 40.1 69.5-58 208.6-225.3 305.1s-336.9 112-377 42.4 57.6-208.6 224.9-305.1c7.7-4.6 10.3-14.4 6-22.3-4.4-7.6-14.2-10.2-21.8-6-181.3 104.7-289.8 258.8-237.4 349.8z" fill="#F85657" opacity=".89" p-id="3048"></path><path d="M185.304 319.317c-52.5 91 56 245.2 237.2 349.6 7.7 4.4 17.5 1.7 21.9-6 4.4-7.7 1.7-17.5-6-21.9-167.3-96.4-265.4-235.5-225.3-305s209.8-54.8 377 41.8c7.7 4.4 17.5 1.7 21.8-6 4.4-7.7 1.7-17.5-6-21.8-180.3-104.6-368.2-121.6-420.6-30.7z m657.9 379.9c35.4-60.8-1.2-151-88.2-237.2-6.3-6.5-16.6-6.6-23-0.4-6.5 6.3-6.6 16.6-0.4 23l0.4 0.4c77.9 77.5 108.9 153.8 83 198.3-27.8 48.1-120 57.2-236 20.7-8.6-2.6-17.6 2.2-20.3 10.7-2.6 8.6 2.2 17.6 10.7 20.3 129.2 40.1 236.5 29.4 273.8-35.8z" fill="#F85657" opacity=".89" p-id="3049"></path><path d="M613.8 426.556c-30.2 6.9-50 35.8-45.6 66.4-29-34.6-27.8-74.6-27.8-132-93.1 35.7-71.5 138.4-74.3 169.7-23.4-19.5-27.8-66.1-27.8-66.1-24.7 12.9-37.1 47.4-37.1 75.5-1.3 66.6 51.6 121.7 118.3 123.1 66.6 1.3 121.7-51.6 123.1-118.3v-4.8c0-40.2-29.1-58.7-28.8-113.5z" fill="#F85F60" opacity=".89" p-id="3050"></path></svg>