<?xml version="1.0" standalone="no"?><!DOCTYPE svg PUBLIC "-//W3C//DTD SVG 1.1//EN" "http://www.w3.org/Graphics/SVG/1.1/DTD/svg11.dtd"><svg t="1649830682718" class="icon" viewBox="0 0 1026 1024" version="1.1" xmlns="http://www.w3.org/2000/svg" p-id="9871" xmlns:xlink="http://www.w3.org/1999/xlink" width="200.390625" height="200"><defs><style type="text/css">@font-face { font-family: "feedback-iconfont"; src: url("//at.alicdn.com/t/font_1031158_u69w8yhxdu.woff2?t=1630033759944") format("woff2"), url("//at.alicdn.com/t/font_1031158_u69w8yhxdu.woff?t=1630033759944") format("woff"), url("//at.alicdn.com/t/font_1031158_u69w8yhxdu.ttf?t=1630033759944") format("truetype"); }
</style></defs><path d="M514.782609 506.434783m-486.956522 0a486.956522 486.956522 0 1 0 973.913043 0 486.956522 486.956522 0 1 0-973.913043 0Z" fill="#4DB996" p-id="9872"></path><path d="M806.956522 358.956522v139.130435H222.608696v-139.130435h584.347826m55.652174-55.652174H166.956522v194.782609c0 30.608696 25.043478 55.652174 55.652174 55.652173h584.347826c30.608696 0 55.652174-25.043478 55.652174-55.652173v-194.782609z" fill="#FFFFFF" p-id="9873"></path><path d="M751.304348 417.391304H278.26087v27.826087h473.043478v-27.826087z m-261.565218 356.173913h36.173913v-114.086956h-36.173913v114.086956z m-225.391304-33.391304l25.043478 27.826087 89.043479-89.043478-25.043479-27.826087-89.043478 89.043478z m425.739131-94.608696l-25.043479 25.043479 86.26087 89.043478 25.043478-25.043478-86.260869-89.043479zM751.304348 556.521739H278.26087v27.826087h473.043478v-27.826087z" fill="#FFFFFF" p-id="9874"></path></svg>