<?xml version="1.0" standalone="no"?><!DOCTYPE svg PUBLIC "-//W3C//DTD SVG 1.1//EN" "http://www.w3.org/Graphics/SVG/1.1/DTD/svg11.dtd"><svg t="1649503692918" class="icon" viewBox="0 0 1024 1024" version="1.1" xmlns="http://www.w3.org/2000/svg" p-id="14765" xmlns:xlink="http://www.w3.org/1999/xlink" width="200" height="200"><defs><style type="text/css">@font-face { font-family: "feedback-iconfont"; src: url("//at.alicdn.com/t/font_1031158_u69w8yhxdu.woff2?t=1630033759944") format("woff2"), url("//at.alicdn.com/t/font_1031158_u69w8yhxdu.woff?t=1630033759944") format("woff"), url("//at.alicdn.com/t/font_1031158_u69w8yhxdu.ttf?t=1630033759944") format("truetype"); }
</style></defs><path d="M0 256C0 115.2 115.2 0 256 0h512c140.8 0 256 115.2 256 256v512c0 140.8-115.2 256-256 256H256C115.2 1024 0 908.8 0 768V256z" fill="#F47C7C" p-id="14766"></path><path d="M153.6 384c0-84.48 69.12-153.6 153.6-153.6h409.6c84.48 0 153.6 69.12 153.6 153.6v102.4H153.6V384z" fill="#FFFFFF" fill-opacity=".4" p-id="14767"></path><path d="M742.4 358.4H281.6c-71.68 0-128 56.32-128 128v204.8c0 84.48 69.12 153.6 153.6 153.6h409.6c84.48 0 153.6-69.12 153.6-153.6V486.4c0-71.68-56.32-128-128-128zM473.6 716.8H268.8c-20.48 0-38.4-17.92-38.4-38.4s17.92-38.4 38.4-38.4h204.8c20.48 0 38.4 17.92 38.4 38.4s-17.92 38.4-38.4 38.4z m81.92-153.6H268.8c-20.48 0-38.4-17.92-38.4-38.4s17.92-38.4 38.4-38.4h286.72c20.48 0 38.4 17.92 38.4 38.4s-15.36 38.4-38.4 38.4z" fill="#FBFBFB" p-id="14768"></path><path d="M307.2 192c0-28.16 23.04-51.2 51.2-51.2s51.2 23.04 51.2 51.2v76.8c0 28.16-23.04 51.2-51.2 51.2s-51.2-23.04-51.2-51.2V192z m307.2 0c0-28.16 23.04-51.2 51.2-51.2s51.2 23.04 51.2 51.2v76.8c0 28.16-23.04 51.2-51.2 51.2s-51.2-23.04-51.2-51.2V192z" fill="#FFFFFF" p-id="14769"></path></svg>