<?xml version="1.0" standalone="no"?><!DOCTYPE svg PUBLIC "-//W3C//DTD SVG 1.1//EN" "http://www.w3.org/Graphics/SVG/1.1/DTD/svg11.dtd"><svg t="1649502761890" class="icon" viewBox="0 0 1024 1024" version="1.1" xmlns="http://www.w3.org/2000/svg" p-id="6181" xmlns:xlink="http://www.w3.org/1999/xlink" width="200" height="200"><defs><style type="text/css">@font-face { font-family: "feedback-iconfont"; src: url("//at.alicdn.com/t/font_1031158_u69w8yhxdu.woff2?t=1630033759944") format("woff2"), url("//at.alicdn.com/t/font_1031158_u69w8yhxdu.woff?t=1630033759944") format("woff"), url("//at.alicdn.com/t/font_1031158_u69w8yhxdu.ttf?t=1630033759944") format("truetype"); }
</style></defs><path d="M598.257145 444.72366c43.899535 43.899535 43.899535 115.727077 0 159.630643l-344.448091 344.448091c-43.895504 43.899535-115.727077 43.899535-159.626612 0l-2.854074-2.854075c-43.895504-43.903567-43.895504-115.727077 0-159.630643l344.444059-344.44406c43.895504-43.899535 115.727077-43.899535 159.626612 0l2.858106 2.850044z" fill="#F0F0FF" p-id="6182"></path><path d="M393.271711 581.12262s21.675648 63.241131 58.250531 84.062169l17.700906-18.05565-75.951437-66.006519z" fill="#FFFFFF" p-id="6183"></path><path d="M586.163609 436.661302l-2.854074-2.854074a111.655586 111.655586 0 0 0-26.101882-19.406094c23.034155 42.75065-56.311535 201.409779-92.297866 237.408204l-256.060468 256.064499c-35.998425 35.994394-100.412629 26.67834-97.67949-28.939832 5.055098 9.380553-39.828045 51.046815-31.926935 58.951957l2.854075 2.854074c43.895504 43.899535 115.727077 43.899535 159.626612 0l344.448091-344.44809c43.891473-43.903567 43.891473-115.735139-0.008063-159.630644z" fill="#FFFFFF" p-id="6184"></path><path d="M137.690953 836.707409l255.580758-255.576726s42.726462 72.690213 131.819542 81.212125c35.873459-42.722431 65.151909-97.332808 29.234107-133.250611l-56.323628-2.854074c-43.899535-43.899535-115.731108-43.899535-159.626612 0l-255.580757 255.576726c-43.895504 43.903567-43.895504 115.727077 0 159.630643l2.854074 2.854075a111.570931 111.570931 0 0 0 30.427337 21.611149c-20.365515-42.073412-13.177923-94.406173 21.615179-129.203307z" fill="#D5D5E8" p-id="6185"></path><path d="M584.006929 458.973876c17.422754 17.422754 27.016959 40.710873 27.016959 65.56309s-9.594205 48.128242-27.016959 65.563089L239.558838 934.548146c-17.418723 17.418723-40.706842 27.016959-65.559058 27.016959s-48.132273-9.598236-65.559059-27.016959l-2.850043-2.850043c-36.15161-36.159672-36.15161-94.982631-0.004031-131.12618l344.444059-344.444059c36.147579-36.147579 94.970538-36.147579 131.118117 0 0.008062 0 2.862137 2.850043 2.858106 2.846012z m25.646358-31.358539c-51.865144-51.865144-136.261901-51.865144-188.127045 0l-344.444059 344.44406c-51.865144 51.865144-51.865144 136.265932 0 188.127045l2.850043 2.850043c25.041682 25.045713 58.448059 38.836375 94.067554 38.836375s69.029903-13.790662 94.063522-38.832344l344.44406-344.444059c25.041682-25.037651 38.828313-58.444028 38.828312-94.067554 0-35.619495-13.790662-69.025872-38.828312-94.059491l-2.854075-2.854075z" fill="#6E6E96" p-id="6186"></path><path d="M848.919865 381.031037c-43.460137 43.472231-114.602378 43.472231-158.070578 0l-27.645823-27.645823c-43.480293-43.472231-43.480293-114.622534 0-158.090733l132.944241-132.944241A294.969404 294.969404 0 0 0 684.036596 40.311786c-163.589261 0-296.206976 132.609653-296.206976 296.202945s132.613684 296.206976 296.206976 296.206976 296.206976-132.609653 296.206975-296.206976c0-26.537249-3.543406-52.240044-10.086009-76.709298l-121.237697 121.225604z" fill="#F0F0FF" p-id="6187"></path><path d="M626.890607 501.922053a20.087363 20.087363 0 0 1-14.250216-5.901645l-84.654752-84.654752a20.155893 20.155893 0 1 1 28.500433-28.504464l84.654752 84.654752a20.155893 20.155893 0 0 1-14.250217 34.406109z" fill="#6E6E96" p-id="6188"></path><path d="M653.141642 201.317062l132.944241-132.944241a295.001653 295.001653 0 0 0-67.284403-18.615983L653.141642 115.412645c-59.246233 59.23817-59.47601 118.359436-42.7184 158.917124 5.43806-13.141642 32.076088-62.374427 42.7184-73.012707z m313.895788 98.352696c-20.849256 143.191497-144.082387 274.813511-293.054594 274.813511-163.593292 0-285.89119-154.257082-254.202094-317.850374 6.982001-36.034706 15.411196-70.795559 26.109944-103.061113-42.532966 51.284655-68.114826 117.133958-68.114826 188.96553 0 163.593292 132.613684 296.206976 296.206976 296.206976s296.206976-132.609653 296.206976-296.206976a295.888513 295.888513 0 0 0-3.152382-42.867554z" fill="#6E6E96" opacity=".15" p-id="6189"></path><path d="M629.281096 342.537312l88.476309 92.616329s66.341107 62.737233 130.839965-1.761625c45.572475-45.568443 118.44006-133.722258 118.44006-133.722258l-158.751846 109.535186-48.374144 4.031179-130.630344-70.698811zM414.673238 276.051083s33.362034-152.487395 253.803008-175.96498l38.638847-38.638847c0-0.008062-228.523486-25.37627-292.441855 214.603827z" fill="#FFFFFF" p-id="6190"></path><path d="M834.665617 366.78082c-17.213133 17.217164-40.219069 26.698496-64.772979 26.698497s-47.567908-9.481332-64.78104-26.698497l-27.649855-27.649854c-17.221195-17.217164-26.706559-40.231163-26.706558-64.793134s9.489395-47.567908 26.706558-64.785072l132.944241-132.948272a20.163956 20.163956 0 0 0-6.615164-32.906511A314.379529 314.379529 0 0 0 684.036596 20.155893c-174.445225 0-316.362869 141.917644-316.36287 316.358838 0 174.445225 141.921675 316.362869 316.36287 316.362869 174.437162 0 316.362869-141.921675 316.362869-316.362869 0-27.625667-3.615967-55.182805-10.77131-81.917581a20.147831 20.147831 0 0 0-33.720809-9.049996l-121.241729 121.233666z m116.021353-101.771136a277.062908 277.062908 0 0 1 9.400708 71.505047c0 152.217306-123.837808 276.051083-276.051082 276.051083-152.221337 0-276.051083-123.841839-276.051083-276.051083S531.823321 60.46768 684.036596 60.46768a274.378143 274.378143 0 0 1 104.472025 20.526761 20.163956 20.163956 0 0 1-6.619195-32.906511l-132.944241 132.948272c-24.836092 24.823998-38.521943 57.960287-38.521943 93.293567s13.685852 68.465538 38.521943 93.305661l27.645824 27.645823c24.828029 24.83206 57.960287 38.50985 93.297598 38.505819 35.325218 0 68.449413-13.677789 93.285505-38.50985l121.233667-121.229635a20.139769 20.139769 0 0 1-19.474624 5.212314 20.127675 20.127675 0 0 1-14.246185-14.250217z" fill="#6E6E96" p-id="6191"></path><path d="M632.651161 105.310511s-71.505047 64.95035-22.227919 169.019258c0 0-25.485111-101.686481 58.044942-174.251728l-35.817023 5.23247z" fill="#FFFFFF" p-id="6192"></path><path d="M598.257145 444.72366c43.899535 43.899535 43.899535 115.727077 0 159.630643l-344.448091 344.448091c-43.895504 43.899535-115.727077 43.899535-159.626612 0l-2.854074-2.854075c-43.895504-43.903567-43.895504-115.727077 0-159.630643l344.444059-344.44406c43.895504-43.899535 115.727077-43.899535 159.626612 0l2.858106 2.850044z" fill="#F0F0FF" p-id="6193"></path><path d="M393.271711 581.12262s21.675648 63.241131 58.250531 84.062169l17.700906-18.05565-75.951437-66.006519z" fill="#FFFFFF" p-id="6194"></path><path d="M586.163609 436.661302l-2.854074-2.854074a111.655586 111.655586 0 0 0-26.101882-19.406094c23.034155 42.75065-56.311535 201.409779-92.297866 237.408204l-256.060468 256.064499c-35.998425 35.994394-100.412629 26.67834-97.67949-28.939832 5.055098 9.380553-39.828045 51.046815-31.926935 58.951957l2.854075 2.854074c43.895504 43.899535 115.727077 43.899535 159.626612 0l344.448091-344.44809c43.891473-43.903567 43.891473-115.735139-0.008063-159.630644z" fill="#FFFFFF" p-id="6195"></path><path d="M137.690953 836.707409l255.580758-255.576726s42.726462 72.690213 131.819542 81.212125c35.873459-42.722431 65.151909-97.332808 29.234107-133.250611l-56.323628-2.854074c-43.899535-43.899535-115.731108-43.899535-159.626612 0l-255.580757 255.576726c-43.895504 43.903567-43.895504 115.727077 0 159.630643l2.854074 2.854075a111.570931 111.570931 0 0 0 30.427337 21.611149c-20.365515-42.073412-13.177923-94.406173 21.615179-129.203307z" fill="#D5D5E8" p-id="6196"></path><path d="M584.006929 458.973876c17.422754 17.422754 27.016959 40.710873 27.016959 65.56309s-9.594205 48.128242-27.016959 65.563089L239.558838 934.548146c-17.418723 17.418723-40.706842 27.016959-65.559058 27.016959s-48.132273-9.598236-65.559059-27.016959l-2.850043-2.850043c-36.15161-36.159672-36.15161-94.982631-0.004031-131.12618l344.444059-344.444059c36.147579-36.147579 94.970538-36.147579 131.118117 0 0.008062 0 2.862137 2.850043 2.858106 2.846012z m25.646358-31.358539c-51.865144-51.865144-136.261901-51.865144-188.127045 0l-344.444059 344.44406c-51.865144 51.865144-51.865144 136.265932 0 188.127045l2.850043 2.850043c25.041682 25.045713 58.448059 38.836375 94.067554 38.836375s69.029903-13.790662 94.063522-38.832344l344.44406-344.444059c25.041682-25.037651 38.828313-58.444028 38.828312-94.067554 0-35.619495-13.790662-69.025872-38.828312-94.059491l-2.854075-2.854075z" fill="#6E6E96" p-id="6197"></path><path d="M848.919865 381.031037c-43.460137 43.472231-114.602378 43.472231-158.070578 0l-27.645823-27.645823c-43.480293-43.472231-43.480293-114.622534 0-158.090733l132.944241-132.944241A294.969404 294.969404 0 0 0 684.036596 40.311786c-163.589261 0-296.206976 132.609653-296.206976 296.202945s132.613684 296.206976 296.206976 296.206976 296.206976-132.609653 296.206975-296.206976c0-26.537249-3.543406-52.240044-10.086009-76.709298l-121.237697 121.225604z" fill="#F0F0FF" p-id="6198"></path><path d="M626.890607 501.922053a20.087363 20.087363 0 0 1-14.250216-5.901645l-84.654752-84.654752a20.155893 20.155893 0 1 1 28.500433-28.504464l84.654752 84.654752a20.155893 20.155893 0 0 1-14.250217 34.406109z" fill="#6E6E96" p-id="6199"></path><path d="M653.141642 201.317062l132.944241-132.944241a295.001653 295.001653 0 0 0-67.284403-18.615983L653.141642 115.412645c-59.246233 59.23817-59.47601 118.359436-42.7184 158.917124 5.43806-13.141642 32.076088-62.374427 42.7184-73.012707z m313.895788 98.352696c-20.849256 143.191497-144.082387 274.813511-293.054594 274.813511-163.593292 0-285.89119-154.257082-254.202094-317.850374 6.982001-36.034706 15.411196-70.795559 26.109944-103.061113-42.532966 51.284655-68.114826 117.133958-68.114826 188.96553 0 163.593292 132.613684 296.206976 296.206976 296.206976s296.206976-132.609653 296.206976-296.206976a295.888513 295.888513 0 0 0-3.152382-42.867554z" fill="#6E6E96" opacity=".15" p-id="6200"></path><path d="M629.281096 342.537312l88.476309 92.616329s66.341107 62.737233 130.839965-1.761625c45.572475-45.568443 118.44006-133.722258 118.44006-133.722258l-158.751846 109.535186-48.374144 4.031179-130.630344-70.698811zM414.673238 276.051083s33.362034-152.487395 253.803008-175.96498l38.638847-38.638847c0-0.008062-228.523486-25.37627-292.441855 214.603827z" fill="#FFFFFF" p-id="6201"></path><path d="M834.665617 366.78082c-17.213133 17.217164-40.219069 26.698496-64.772979 26.698497s-47.567908-9.481332-64.78104-26.698497l-27.649855-27.649854c-17.221195-17.217164-26.706559-40.231163-26.706558-64.793134s9.489395-47.567908 26.706558-64.785072l132.944241-132.948272a20.163956 20.163956 0 0 0-6.615164-32.906511A314.379529 314.379529 0 0 0 684.036596 20.155893c-174.445225 0-316.362869 141.917644-316.36287 316.358838 0 174.445225 141.921675 316.362869 316.36287 316.362869 174.437162 0 316.362869-141.921675 316.362869-316.362869 0-27.625667-3.615967-55.182805-10.77131-81.917581a20.147831 20.147831 0 0 0-33.720809-9.049996l-121.241729 121.233666z m116.021353-101.771136a277.062908 277.062908 0 0 1 9.400708 71.505047c0 152.217306-123.837808 276.051083-276.051082 276.051083-152.221337 0-276.051083-123.841839-276.051083-276.051083S531.823321 60.46768 684.036596 60.46768a274.378143 274.378143 0 0 1 104.472025 20.526761 20.163956 20.163956 0 0 1-6.619195-32.906511l-132.944241 132.948272c-24.836092 24.823998-38.521943 57.960287-38.521943 93.293567s13.685852 68.465538 38.521943 93.305661l27.645824 27.645823c24.828029 24.83206 57.960287 38.50985 93.297598 38.505819 35.325218 0 68.449413-13.677789 93.285505-38.50985l121.233667-121.229635a20.139769 20.139769 0 0 1-19.474624 5.212314 20.127675 20.127675 0 0 1-14.246185-14.250217z" fill="#6E6E96" p-id="6202"></path><path d="M632.651161 105.310511s-71.505047 64.95035-22.227919 169.019258c0 0-25.485111-101.686481 58.044942-174.251728l-35.817023 5.23247z" fill="#FFFFFF" p-id="6203"></path><path d="M427.057019 441.873616c43.899535-43.899535 115.731108-43.899535 159.626612 0l344.44406 344.44406c43.895504 43.903567 43.895504 115.727077 0 159.630643l-2.854075 2.854075c-43.899535 43.899535-115.731108 43.899535-159.626612 0l-344.448091-344.448091c-43.899535-43.903567-43.899535-115.731108 0-159.630643l2.858106-2.850044z" fill="#F5DD67" p-id="6204"></path><path d="M553.232911 647.129139l17.700905 18.05565c36.574884-20.817007 58.250531-84.062168 58.250532-84.062169l-75.951437 66.006519z" fill="#FFF4BA" p-id="6205"></path><path d="M436.284387 596.287914l344.448091 344.448091c43.899535 43.899535 115.731108 43.899535 159.626612 0l2.854074-2.854074c7.90111-7.905141-36.982033-49.571404-31.926935-58.951957 2.733139 55.618172-61.685096 64.930194-97.679489 28.939832l-256.060468-256.064499c-35.990363-35.998425-115.332021-194.653523-92.297866-237.408204a111.768459 111.768459 0 0 0-26.101882 19.406094l-2.854075 2.854074c-43.895504 43.899535-43.895504 115.731108-0.008062 159.630643z" fill="#FFF4BA" p-id="6206"></path><path d="M906.380285 965.910716a111.720085 111.720085 0 0 0 30.427336-21.611149l2.854075-2.854075c43.895504-43.903567 43.895504-115.727077 0-159.630643l-255.580757-255.576726c-43.895504-43.899535-115.727077-43.899535-159.626613 0l-56.323628 2.854074c-35.917802 35.917802-6.639351 90.528179 29.234108 133.250611 89.09711-8.51788 131.819542-81.212125 131.819542-81.212125l255.580757 255.576726c34.793103 34.797134 41.980694 87.129895 21.61518 129.203307z" fill="#F2BD52" p-id="6207"></path><path d="M441.303204 456.123833c36.15161-36.147579 94.974569-36.147579 131.118117 0l344.44406 344.444059c36.147579 36.147579 36.147579 94.970538-0.004031 131.126179l-2.850044 2.850044c-17.422754 17.418723-40.706842 27.016959-65.559058 27.016959s-48.136304-9.598236-65.559058-27.016959l-344.448091-344.448091c-17.422754-17.430816-27.016959-40.710873-27.016959-65.56309s9.594205-48.136304 27.016959-65.563089c0 0.008062 2.854074-2.841981 2.858105-2.846012z m-31.354507-25.654421c-25.037651 25.033619-38.828313 58.439997-38.828313 94.059491 0 35.623526 13.786631 69.029903 38.828313 94.067554l344.444059 344.444059c25.033619 25.041682 58.444028 38.832344 94.063523 38.832344s69.025872-13.790662 94.067554-38.836375l2.850043-2.850043c51.865144-51.861113 51.865144-136.261901 0-188.127045l-344.444059-344.44406c-51.865144-51.865144-136.261901-51.865144-188.127046 0l-2.854074 2.854075z" fill="#6E6E96" p-id="6208"></path><path d="M52.298496 259.801401a296.557688 296.557688 0 0 0-10.086009 76.709299c0 163.597323 132.609653 296.206976 296.206976 296.206976s296.206976-132.613684 296.206976-296.206976S502.008724 40.311786 338.419463 40.311786a295.05809 295.05809 0 0 0-112.111109 22.034423l132.94424 132.944241c43.480293 43.468199 43.480293 114.618502 0 158.090733l-27.645823 27.645823c-43.468199 43.472231-114.61044 43.472231-158.070577 0L52.298496 259.801401z" fill="#F5DD67" p-id="6209"></path><path d="M395.569483 501.922053a20.155893 20.155893 0 0 1-14.254248-34.406109l84.654752-84.654752a20.159924 20.159924 0 0 1 28.504464 28.504464l-84.654752 84.654752a20.087363 20.087363 0 0 1-14.250216 5.901645z" fill="#6E6E96" p-id="6210"></path><path d="M412.032816 274.329769c16.75761-40.557688 16.531864-99.678954-42.7184-158.917124L303.654578 49.752807A295.001653 295.001653 0 0 0 236.370176 68.36879l132.94424 132.948272c10.646343 10.63828 37.28034 59.871065 42.7184 73.012707z m-359.762538 68.207543c0 163.597323 132.609653 296.206976 296.206976 296.206976s296.206976-132.613684 296.206976-296.206976c0-71.831572-25.585891-137.680876-68.114826-188.96553 10.694717 32.269585 19.123912 67.026407 26.109944 103.061113 31.689095 163.593292-90.608802 317.850374-254.202094 317.850374-148.972207 0-272.205338-131.622014-293.054594-274.813511a295.324148 295.324148 0 0 0-3.152382 42.867554z" fill="#F2BD52" p-id="6211"></path><path d="M262.544619 413.236123l-48.374144-4.031179-158.751847-109.535186s72.867585 88.153815 118.44006 133.722258c64.498858 64.498858 130.839965 1.761625 130.839966 1.761625l88.476309-92.616329-130.630344 70.698811zM315.340965 61.443225l38.638848 38.638847c220.440973 23.477584 253.803008 175.964979 253.803007 175.964979C543.864452 36.070987 315.340965 61.439194 315.340965 61.443225z" fill="#FFF4BA" p-id="6212"></path><path d="M66.552744 245.543123a20.147831 20.147831 0 1 0-33.72081 9.049996 317.132824 317.132824 0 0 0-10.771309 81.917581c0 174.441194 141.921675 316.362869 316.362869 316.362869 174.441194 0 316.362869-141.917644 316.362869-316.362869C654.782332 162.073538 512.864688 20.155893 338.419463 20.155893a314.488371 314.488371 0 0 0-119.750193 23.534021 20.155893 20.155893 0 0 0-6.615164 32.906511l132.944241 132.948272c17.217164 17.217164 26.706559 40.227132 26.706558 64.785072S362.223573 321.909771 345.002378 339.126935l-27.649855 27.649854c-17.217164 17.217164-40.227132 26.698496-64.78104 26.698496S205.007606 383.993953 187.798504 366.776789c-0.012094 0-121.24576-121.229635-121.24576-121.233666z m-9.02984 33.716778a20.135737 20.135737 0 0 1-19.474624-5.212314l121.233666 121.229635c24.83206 24.83206 57.960287 38.50985 93.285505 38.50985 35.337312 0.004031 68.465538-13.673758 93.297599-38.505819l27.645823-27.645823c24.836092-24.836092 38.521943-57.97238 38.521943-93.305661S398.346965 205.864231 373.510873 181.036202l-132.94424-132.948272a20.163956 20.163956 0 0 1-6.619196 32.906511A274.378143 274.378143 0 0 1 338.419463 60.46768c152.217306 0 276.051083 123.833777 276.051083 276.047051s-123.833777 276.051083-276.051083 276.051083c-152.213275 0-276.051083-123.837808-276.051083-276.051083 0-24.110479 3.164475-48.172585 9.400709-71.505047a20.115581 20.115581 0 0 1-14.246185 14.250217z" fill="#6E6E96" p-id="6213"></path><path d="M353.983844 100.078041c83.534084 72.565247 58.044941 174.251728 58.044941 174.251728 49.281159-104.064877-22.227919-169.019258-22.227919-169.019258l-35.817022-5.23247z" fill="#FFF4BA" p-id="6214"></path></svg>