<?xml version="1.0" standalone="no"?><!DOCTYPE svg PUBLIC "-//W3C//DTD SVG 1.1//EN" "http://www.w3.org/Graphics/SVG/1.1/DTD/svg11.dtd"><svg t="1649831760895" class="icon" viewBox="0 0 1024 1024" version="1.1" xmlns="http://www.w3.org/2000/svg" p-id="11411" xmlns:xlink="http://www.w3.org/1999/xlink" width="200" height="200"><defs><style type="text/css">@font-face { font-family: "feedback-iconfont"; src: url("//at.alicdn.com/t/font_1031158_u69w8yhxdu.woff2?t=1630033759944") format("woff2"), url("//at.alicdn.com/t/font_1031158_u69w8yhxdu.woff?t=1630033759944") format("woff"), url("//at.alicdn.com/t/font_1031158_u69w8yhxdu.ttf?t=1630033759944") format("truetype"); }
</style></defs><path d="M689.408 131.2768l-46.336-53.8112-46.4896 53.6576c-15.2064 17.6128-97.5872 114.2784-165.7856 230.5024a921.344 921.344 0 0 0-64.0512 129.7408c-19.2512 49.5616-31.8464 98.816-31.744 143.8208 0.1536 28.5184 4.4032 56.0128 11.6224 82.176a310.9888 310.9888 0 0 0 54.016 108.0832c56.4224 73.0112 143.8208 120.2176 241.92 120.2176 169.472 0 307.4048-139.4176 307.4048-310.784 0-195.7376-233.8816-472.6784-260.5568-503.6032z m95.4368 686.8992c-47.5136 33.4848-104.2944 48.7936-151.5008 41.1136a125.5936 125.5936 0 0 1-35.4304-11.4176 392.0384 392.0384 0 0 0 102.656-51.6096c71.2192-50.1248 123.392-121.9072 137.8304-194.0992 17.2544 11.7248 36.4544 39.9872 36.352 68.4032-0.1024 53.7088-36.608 110.1312-89.9072 147.6096z" fill="#00A0E9" p-id="11412"></path><path d="M523.4688 554.3424c-18.6368-44.4928-43.9808-88.6272-69.3248-127.3856a1278.208 1278.208 0 0 0-94.7712-127.1296l-46.336-53.7088-46.4896 53.6064c-19.9168 22.8864-194.6624 228.608-193.9968 376.9856 0.6144 133.4784 108.288 242.0224 240.0256 242.0224 40.2944 0 78.1824-10.1888 111.5136-27.904a243.456 243.456 0 0 0 89.5488-82.4832 195.3792 195.3792 0 0 1-33.28-108.3904c-0.1536-41.5744 17.3568-92.7744 43.1104-145.6128z m-131.6352 271.1552c-28.4672 19.9168-62.6176 29.2864-90.88 24.5248a76.8 76.8 0 0 1-21.2992-6.7072c21.248-7.0144 42.24-17.408 61.5936-31.0784 42.7008-30.1056 74.0864-73.0112 82.688-116.2752 10.3424 6.8096 21.9136 23.808 21.8624 40.9088-0.0512 32.1536-22.016 66.048-53.9648 88.6272z" fill="#00A0E9" p-id="11413"></path></svg>