<?xml version="1.0" standalone="no"?><!DOCTYPE svg PUBLIC "-//W3C//DTD SVG 1.1//EN" "http://www.w3.org/Graphics/SVG/1.1/DTD/svg11.dtd"><svg t="1648879012699" class="icon" viewBox="0 0 1024 1024" version="1.1" xmlns="http://www.w3.org/2000/svg" p-id="4472" xmlns:xlink="http://www.w3.org/1999/xlink" width="200" height="200"><defs><style type="text/css">@font-face { font-family: feedback-iconfont; src: url("//at.alicdn.com/t/font_1031158_u69w8yhxdu.woff2?t=1630033759944") format("woff2"), url("//at.alicdn.com/t/font_1031158_u69w8yhxdu.woff?t=1630033759944") format("woff"), url("//at.alicdn.com/t/font_1031158_u69w8yhxdu.ttf?t=1630033759944") format("truetype"); }
</style></defs><path d="M486.485333 1014.613333l-0.341333-0.170666c-75.264-29.013333-139.605333-68.266667-191.488-104.96-47.104-33.28-85.162667-79.36-113.322667-119.125334C123.989333 709.290667 117.333333 631.637333 117.333333 580.266667V130.218667l73.557334 2.730666c6.997333 0.170667 13.994667 0.341333 20.821333 0.341334 159.914667 0 235.178667-62.976 249.514667-76.629334l51.2-56.661333 52.565333 58.197333c5.290667 5.12 81.066667 75.264 247.125333 75.264 6.485333 0 13.312 0 19.456-0.341333h0.682667l74.24-2.730667V580.266667c0 51.2-6.656 128.682667-64 209.92-28.16 39.936-66.218667 86.016-113.322667 119.296-51.882667 36.693333-116.224 75.946667-191.488 104.96l-0.682666 0.170666-25.258667 9.216-25.258667-9.216z" fill="#29E3EE" p-id="4473"></path><path d="M836.522667 178.858667c-7.68 0.512-15.36 0.512-22.528 0.512-194.389333 0-279.893333-89.088-280.405334-90.112l-19.456-21.504-19.456 21.504c-1.536 1.024-91.648 96.768-303.957333 89.6l-27.136-1.024v403.626666c0 105.813333 35.328 274.773333 340.138667 392.533334l9.728 3.584 9.728-3.584c304.810667-117.589333 340.138667-287.061333 340.138666-392.533334V177.834667l-26.794666 1.024z" fill="#FF3131" p-id="4474"></path><path d="M329.472 807.424v-156.330667l-34.474667 0.853334v-36.522667l79.872-8.192v200.192zM479.488 806.570667v-156.501334l-34.304 1.024v-36.522666l79.701333-8.192v200.192zM713.301333 627.029333c-11.776-13.824-27.136-20.821333-45.738666-20.821333-18.090667 0-33.28 6.826667-44.885334 20.309333-11.605333 13.312-17.408 30.208-17.408 50.005334 0 20.48 4.778667 37.034667 14.506667 49.322666 9.728 12.458667 23.381333 18.773333 40.277333 18.773334 6.314667 0 12.458667-1.536 17.92-4.437334 3.242667-1.706667 6.314667-3.925333 9.045334-6.656v4.949334c0 12.117333-2.389333 21.674667-7.168 28.330666-4.608 6.485333-10.24 9.557333-17.237334 9.557334-5.632 0-10.922667-0.512-15.36-1.536-4.437333-1.024-9.216-2.56-13.994666-4.608l-3.413334-1.536-7.68 33.28 2.218667 1.024c5.802667 2.730667 12.117333 4.949333 18.773333 6.485333 6.656 1.536 13.141333 2.218667 19.456 2.218667 19.626667 0 36.010667-6.997333 48.981334-20.650667 12.8-13.653333 19.285333-32.085333 19.285333-54.954667v-52.394666c0-23.893333-5.973333-43.008-17.578667-56.661334z m-20.309333 74.069334l-0.341333 0.682666c-2.730667 4.608-6.314667 8.192-10.581334 10.922667-4.437333 2.730667-9.557333 4.266667-15.189333 4.266667-8.021333 0-14.165333-4.096-18.261333-11.946667-3.754667-7.338667-5.802667-16.896-5.802667-28.501333 0-10.922667 2.218667-20.48 6.314667-28.330667 4.608-8.362667 10.752-12.629333 18.602666-12.629333 7.850667 0 14.165333 3.754667 18.773334 11.264 4.437333 6.997333 6.656 17.237333 6.656 30.208v24.064z" fill="#FFFFFF" p-id="4475"></path><path d="M594.346667 306.517333l-24.234667 24.234667s0-96.938667-80.725333-129.194667c0 0-8.021333 88.917333-48.469334 121.173334s-121.173333 129.194667 40.448 201.898666c0 0-80.725333-88.917333 24.234667-153.429333 0 0-8.021333 32.256 32.256 64.682667 40.448 32.256 0 88.917333 0 88.917333s193.706667-48.64 56.490667-218.282667z m0 0" fill="#FFD712" p-id="4476"></path></svg>